<?xml version="1.0" encoding="utf-8"?>
<!-- Generator: Adobe Illustrator 15.1.0, SVG Export Plug-In . SVG Version: 6.00 Build 0)  -->
<!DOCTYPE svg PUBLIC "-//W3C//DTD SVG 1.1//EN" "http://www.w3.org/Graphics/SVG/1.1/DTD/svg11.dtd">
<svg version="1.1" id="Layer_1" xmlns="http://www.w3.org/2000/svg" xmlns:xlink="http://www.w3.org/1999/xlink" x="0px" y="0px"
	 width="73px" height="100px" viewBox="0 0 73 100" enable-background="new 0 0 73 100" xml:space="preserve">
<rect x="1" y="11" fill="#EFEFEF" width="20" height="88"/>
<rect x="51" y="11" fill="#EFEFEF" width="20" height="88"/>
<path fill="#848383" d="M67,49v31h-9.53c-1.689,2-3.71,3.69-5.97,5.19c-4.15,2.75-9.14,4.234-14.5,4.234
	c-5.8,0-11.16-1.692-15.5-4.872C19.64,83.192,17.97,81,16.53,80H5V49h10.1c1.72-3,3.64-5.11,6.15-6.94
	C24.44,39.72,28,37.84,32,37.14V2h8v34.99c5,0.53,8.02,2.23,11.25,4.37C54.19,43.31,56.96,46,58.9,49H67z"/>
</svg>
